<svg xmlns="http://www.w3.org/2000/svg" width="60" height="60" fill="none"><path fill="#FFD8BE" d="M0 10C0 4.477 4.477 0 10 0h40c5.523 0 10 4.477 10 10v40c0 5.523-4.477 10-10 10H10C4.477 60 0 55.523 0 50z"/><path fill="#091540" fill-rule="evenodd" d="M23.955 21.853c.738 0 1.334-.596 1.334-1.333V18a1.333 1.333 0 1 0-2.667 0v2.52c0 .737.596 1.333 1.333 1.333m-2.105 2.105c0-.737-.596-1.333-1.333-1.333H18a1.333 1.333 0 1 0 0 2.667h2.516c.737 0 1.333-.596 1.333-1.334Zm14.198 14.188c-.738 0-1.334.596-1.334 1.333V42a1.333 1.333 0 1 0 2.667 0v-2.52c0-.737-.596-1.333-1.333-1.333ZM42 34.708h-2.517a1.333 1.333 0 1 0 0 2.667H42a1.332 1.332 0 1 0 0-2.667m-10.396 1.419-1.31 1.316c-2.136 2.129-5.606 2.13-7.736.002a5.48 5.48 0 0 1 0-7.738l1.311-1.308a1.335 1.335 0 0 0-1.883-1.89l-1.313 1.31c-3.17 3.174-3.17 8.337 0 11.511a8.1 8.1 0 0 0 5.748 2.375c2.084 0 4.17-.792 5.76-2.377l1.314-1.32a1.332 1.332 0 1 0-1.891-1.88Zm9.948-9.548a8.09 8.09 0 0 0-2.375-5.761c-3.166-3.167-8.326-3.167-11.506 0l-1.32 1.32a1.33 1.33 0 0 0 0 1.885c.52.521 1.364.521 1.885 0l1.319-1.319c2.136-2.128 5.606-2.132 7.737-.001a5.44 5.44 0 0 1 1.593 3.875c0 1.466-.566 2.84-1.593 3.865l-1.323 1.321a1.334 1.334 0 0 0 1.887 1.886l1.321-1.322a8.08 8.08 0 0 0 2.375-5.749" clip-rule="evenodd"/></svg>